<svg width="33" height="33" viewBox="0 0 33 33" fill="none" xmlns="http://www.w3.org/2000/svg">
<path d="M10.9084 18.1007C12.7884 18.1007 14.2951 19.622 14.2951 21.5154V26.0607C14.2951 27.9407 12.7884 29.474 10.9084 29.474H6.40177C4.53511 29.474 3.01511 27.9407 3.01511 26.0607V21.5154C3.01511 19.622 4.53511 18.1007 6.40177 18.1007H10.9084ZM26.2952 18.1007C28.1619 18.1007 29.6819 19.622 29.6819 21.5154V26.0607C29.6819 27.9407 28.1619 29.474 26.2952 29.474H21.7886C19.9086 29.474 18.4019 27.9407 18.4019 26.0607V21.5154C18.4019 19.622 19.9086 18.1007 21.7886 18.1007H26.2952ZM10.9084 2.80777C12.7884 2.80777 14.2951 4.3411 14.2951 6.22244V10.7678C14.2951 12.6611 12.7884 14.1811 10.9084 14.1811H6.40177C4.53511 14.1811 3.01511 12.6611 3.01511 10.7678V6.22244C3.01511 4.3411 4.53511 2.80777 6.40177 2.80777H10.9084ZM26.2952 2.80777C28.1619 2.80777 29.6819 4.3411 29.6819 6.22244V10.7678C29.6819 12.6611 28.1619 14.1811 26.2952 14.1811H21.7886C19.9086 14.1811 18.4019 12.6611 18.4019 10.7678V6.22244C18.4019 4.3411 19.9086 2.80777 21.7886 2.80777H26.2952Z" fill="white"/>
</svg>
