<svg width="33" height="33" viewBox="0 0 33 33" fill="none" xmlns="http://www.w3.org/2000/svg">
<path d="M22.4382 2.82155C24.3562 2.70167 26.2476 3.36765 27.6728 4.67297C28.9781 6.09816 29.6441 7.98954 29.5375 9.92087V22.3613C29.6574 24.2927 28.9781 26.184 27.6861 27.6092C26.2609 28.9146 24.3562 29.5805 22.4382 29.4607H9.9976C8.06625 29.5805 6.17486 28.9146 4.74966 27.6092C3.44433 26.184 2.77835 24.2927 2.89823 22.3613V9.92087C2.77835 7.98954 3.44433 6.09816 4.74966 4.67297C6.17486 3.36765 8.06625 2.70167 9.9976 2.82155H22.4382ZM22.0919 8.90859C21.266 8.08277 19.9341 8.08277 19.1083 8.90859L18.2158 9.81432C18.0826 9.94751 18.0826 10.1739 18.2158 10.3071C18.2158 10.3071 18.242 10.3331 18.2885 10.3794L18.6161 10.7052C18.8057 10.8938 19.0422 11.1293 19.2797 11.366L20.0852 12.1711C20.2533 12.3399 20.3647 12.4531 20.3736 12.4649C20.5201 12.6247 20.6134 12.8379 20.6134 13.0776C20.6134 13.5571 20.2271 13.9567 19.7343 13.9567C19.5078 13.9567 19.2947 13.8635 19.1482 13.7169L16.9238 11.5059C16.8173 11.3993 16.6308 11.3993 16.5242 11.5059L10.1708 17.8593C9.73121 18.2989 9.47814 18.8849 9.46482 19.511L9.3849 22.6677C9.3849 22.8408 9.43818 23.0007 9.55806 23.1205C9.67793 23.2404 9.83777 23.307 10.0109 23.307H13.141C13.7804 23.307 14.3931 23.054 14.8593 22.6011L23.8234 13.6104C24.6359 12.7846 24.6359 11.4526 23.8234 10.6401L22.0919 8.90859Z" fill="white"/>
</svg>
